HIERARCHY
ROOT Hips
{
	OFFSET 0.053599 88.859886 3.107447
	CHANNELS 6 Xposition Yposition Zposition Zrotation Yrotation Xrotation 
	JOINT Spine
	{
		OFFSET -0.000000 8.814246 -2.080107
		CHANNELS 3 Zrotation Yrotation Xrotation
		JOINT Spine1
		{
			OFFSET 0.000000 8.844141 0.000000
			CHANNELS 3 Zrotation Yrotation Xrotation
			JOINT Spine2
			{
				OFFSET -0.000000 11.682268 0.000000
				CHANNELS 3 Zrotation Yrotation Xrotation
				JOINT Spine3
				{
					OFFSET 0.000000 11.746700 0.000000
					CHANNELS 3 Zrotation Yrotation Xrotation
					JOINT Neck
					{
						OFFSET -0.000000 17.658264 -0.000000
						CHANNELS 3 Zrotation Yrotation Xrotation
						JOINT Neck1
						{
							OFFSET -0.000000 5.101515 -0.000000
							CHANNELS 3 Zrotation Yrotation Xrotation
							JOINT Head
							{
								OFFSET 0.000000 5.101515 0.000000
								CHANNELS 3 Zrotation Yrotation Xrotation
								JOINT HeadEnd
								{
									OFFSET 0.000000 11.655085 0.000000
									CHANNELS 3 Zrotation Yrotation Xrotation
									End Site
									{
										OFFSET 0.000000 0.000000 0.000000
									}
								}
							}
						}
					}
					JOINT RightShoulder
					{
						OFFSET -2.625389 11.175210 0.000000
						CHANNELS 3 Zrotation Yrotation Xrotation
						JOINT RightArm
						{
							OFFSET -0.000000 10.434715 -0.000000
							CHANNELS 3 Zrotation Yrotation Xrotation
							JOINT RightForeArm
							{
								OFFSET -0.000000 29.628420 0.000000
								CHANNELS 3 Zrotation Yrotation Xrotation
								JOINT RightHand
								{
									OFFSET -0.000000 22.857611 0.000000
									CHANNELS 3 Zrotation Yrotation Xrotation
									JOINT RightHandThumb1
									{
										OFFSET -2.867323 3.959563 2.944291
										CHANNELS 3 Zrotation Yrotation Xrotation
										JOINT RightHandThumb2
										{
											OFFSET 0.000000 3.350399 0.000000
											CHANNELS 3 Zrotation Yrotation Xrotation
											JOINT RightHandThumb3
											{
												OFFSET 0.000000 3.756509 -0.000000
												CHANNELS 3 Zrotation Yrotation Xrotation
												JOINT RightHandThumb4
												{
													OFFSET 0.000000 3.147345 0.000000
													CHANNELS 3 Zrotation Yrotation Xrotation
													End Site
													{
														OFFSET 0.000000 0.000000 0.000000
													}
												}
											}
										}
									}
									JOINT RightHandIndex1
									{
										OFFSET -0.086752 10.030893 2.345280
										CHANNELS 3 Zrotation Yrotation Xrotation
										JOINT RightHandIndex2
										{
											OFFSET -0.000000 4.061090 0.000000
											CHANNELS 3 Zrotation Yrotation Xrotation
											JOINT RightHandIndex3
											{
												OFFSET -0.000000 3.248873 0.000000
												CHANNELS 3 Zrotation Yrotation Xrotation
												JOINT RightHandIndex4
												{
													OFFSET 0.000000 2.639709 -0.000000
													CHANNELS 3 Zrotation Yrotation Xrotation
													End Site
													{
														OFFSET 0.000000 0.000000 0.000000
													}
												}
											}
										}
									}
									JOINT RightHandMiddle1
									{
										OFFSET 0.104102 9.502952 0.006768
										CHANNELS 3 Zrotation Yrotation Xrotation
										JOINT RightHandMiddle2
										{
											OFFSET 0.000000 4.568727 0.000000
											CHANNELS 3 Zrotation Yrotation Xrotation
											JOINT RightHandMiddle3
											{
												OFFSET 0.000000 3.654981 -0.000000
												CHANNELS 3 Zrotation Yrotation Xrotation
												JOINT RightHandMiddle4
												{
													OFFSET -0.000000 2.741236 -0.000000
													CHANNELS 3 Zrotation Yrotation Xrotation
													End Site
													{
														OFFSET 0.000000 0.000000 0.000000
													}
												}
											}
										}
									}
									JOINT RightHandRing1
									{
										OFFSET 0.086752 8.921708 -2.267442
										CHANNELS 3 Zrotation Yrotation Xrotation
										JOINT RightHandRing2
										{
											OFFSET -0.000000 4.061090 0.000000
											CHANNELS 3 Zrotation Yrotation Xrotation
											JOINT RightHandRing3
											{
												OFFSET 0.000000 3.654981 -0.000000
												CHANNELS 3 Zrotation Yrotation Xrotation
												JOINT RightHandRing4
												{
													OFFSET 0.000000 2.741236 -0.000000
													CHANNELS 3 Zrotation Yrotation Xrotation
													End Site
													{
														OFFSET 0.000000 0.000000 0.000000
													}
												}
											}
										}
									}
									JOINT RightHandPinky1
									{
										OFFSET -0.173504 7.976997 -4.467199
										CHANNELS 3 Zrotation Yrotation Xrotation
										JOINT RightHandPinky2
										{
											OFFSET 0.000000 3.350399 -0.000000
											CHANNELS 3 Zrotation Yrotation Xrotation
											JOINT RightHandPinky3
											{
												OFFSET -0.000000 2.842763 0.000000
												CHANNELS 3 Zrotation Yrotation Xrotation
												JOINT RightHandPinky4
												{
													OFFSET -0.000000 2.639709 0.000000
													CHANNELS 3 Zrotation Yrotation Xrotation
													End Site
													{
														OFFSET 0.000000 0.000000 0.000000
													}
												}
											}
										}
									}
									JOINT RightForeArmEnd
									{
										OFFSET 0.000000 0.000000 0.000000
										CHANNELS 3 Zrotation Yrotation Xrotation
										End Site
										{
											OFFSET 0.000000 0.000000 0.000000
										}
									}
								}
								JOINT RightArmEnd
								{
									OFFSET 0.000000 0.000000 0.000000
									CHANNELS 3 Zrotation Yrotation Xrotation
									End Site
									{
										OFFSET 0.000000 0.000000 0.000000
									}
								}
							}
						}
					}
					JOINT LeftShoulder
					{
						OFFSET 2.625389 11.175210 0.000000
						CHANNELS 3 Zrotation Yrotation Xrotation
						JOINT LeftArm
						{
							OFFSET 0.000000 10.813635 -0.000000
							CHANNELS 3 Zrotation Yrotation Xrotation
							JOINT LeftForeArm
							{
								OFFSET 0.000000 28.724781 0.000000
								CHANNELS 3 Zrotation Yrotation Xrotation
								JOINT LeftHand
								{
									OFFSET 0.644384 25.716167 -0.328871
									CHANNELS 3 Zrotation Yrotation Xrotation
									JOINT LeftHandThumb1
									{
										OFFSET 2.867323 3.959563 2.944291
										CHANNELS 3 Zrotation Yrotation Xrotation
										JOINT LeftHandThumb2
										{
											OFFSET 0.000000 3.350399 0.000000
											CHANNELS 3 Zrotation Yrotation Xrotation
											JOINT LeftHandThumb3
											{
												OFFSET -0.000000 3.756509 0.000000
												CHANNELS 3 Zrotation Yrotation Xrotation
												JOINT LeftHandThumb4
												{
													OFFSET -0.000000 3.100000 0.000000
													CHANNELS 3 Zrotation Yrotation Xrotation
													End Site
													{
														OFFSET 0.000000 0.000000 0.000000
													}
												}
											}
										}
									}
									JOINT LeftHandIndex1
									{
										OFFSET 0.086752 10.030893 2.345280
										CHANNELS 3 Zrotation Yrotation Xrotation
										JOINT LeftHandIndex2
										{
											OFFSET -0.000000 4.061090 -0.000000
											CHANNELS 3 Zrotation Yrotation Xrotation
											JOINT LeftHandIndex3
											{
												OFFSET 0.000000 3.248873 -0.000000
												CHANNELS 3 Zrotation Yrotation Xrotation
												JOINT LeftHandIndex4
												{
													OFFSET 0.000000 2.639709 -0.000000
													CHANNELS 3 Zrotation Yrotation Xrotation
													End Site
													{
														OFFSET 0.000000 0.000000 0.000000
													}
												}
											}
										}
									}
									JOINT LeftHandMiddle1
									{
										OFFSET -0.104102 9.502952 0.006768
										CHANNELS 3 Zrotation Yrotation Xrotation
										JOINT LeftHandMiddle2
										{
											OFFSET -0.000000 4.568727 -0.000000
											CHANNELS 3 Zrotation Yrotation Xrotation
											JOINT LeftHandMiddle3
											{
												OFFSET 0.000000 3.654981 0.000000
												CHANNELS 3 Zrotation Yrotation Xrotation
												JOINT LeftHandMiddle4
												{
													OFFSET 0.000000 2.741236 -0.000000
													CHANNELS 3 Zrotation Yrotation Xrotation
													End Site
													{
														OFFSET 0.000000 0.000000 0.000000
													}
												}
											}
										}
									}
									JOINT LeftHandRing1
									{
										OFFSET -0.086752 8.921708 -2.267442
										CHANNELS 3 Zrotation Yrotation Xrotation
										JOINT LeftHandRing2
										{
											OFFSET 0.000000 4.061090 0.000000
											CHANNELS 3 Zrotation Yrotation Xrotation
											JOINT LeftHandRing3
											{
												OFFSET 0.000000 3.654981 0.000000
												CHANNELS 3 Zrotation Yrotation Xrotation
												JOINT LeftHandRing4
												{
													OFFSET 0.000000 2.741236 0.000000
													CHANNELS 3 Zrotation Yrotation Xrotation
													End Site
													{
														OFFSET 0.000000 0.000000 0.000000
													}
												}
											}
										}
									}
									JOINT LeftHandPinky1
									{
										OFFSET 0.173504 7.976997 -4.467199
										CHANNELS 3 Zrotation Yrotation Xrotation
										JOINT LeftHandPinky2
										{
											OFFSET -0.000000 3.350399 -0.000000
											CHANNELS 3 Zrotation Yrotation Xrotation
											JOINT LeftHandPinky3
											{
												OFFSET 0.000000 2.842763 0.000000
												CHANNELS 3 Zrotation Yrotation Xrotation
												JOINT LeftHandPinky4
												{
													OFFSET -0.000000 2.639709 -0.000000
													CHANNELS 3 Zrotation Yrotation Xrotation
													End Site
													{
														OFFSET 0.000000 0.000000 0.000000
													}
												}
											}
										}
									}
									JOINT LeftForeArmEnd
									{
										OFFSET 0.000000 0.000000 0.000000
										CHANNELS 3 Zrotation Yrotation Xrotation
										End Site
										{
											OFFSET 0.000000 0.000000 0.000000
										}
									}
								}
								JOINT LeftArmEnd
								{
									OFFSET 0.000000 0.000000 0.000000
									CHANNELS 3 Zrotation Yrotation Xrotation
									End Site
									{
										OFFSET 0.000000 0.000000 0.000000
									}
								}
							}
						}
					}
				}
			}
		}
	}
	JOINT RightUpLeg
	{
		OFFSET -11.289943 0.000000 0.000000
		CHANNELS 3 Zrotation Yrotation Xrotation
		JOINT RightLeg
		{
			OFFSET 0.000000 -38.200325 0.000000
			CHANNELS 3 Zrotation Yrotation Xrotation
			JOINT RightFoot
			{
				OFFSET -0.000000 -39.900856 -0.000000
				CHANNELS 3 Zrotation Yrotation Xrotation
				JOINT RightToeBase
				{
					OFFSET 0.000000 0.000000 15.261641
					CHANNELS 3 Zrotation Yrotation Xrotation
					JOINT RightToeBaseEnd
					{
						OFFSET 0.000000 0.000000 7.370709
						CHANNELS 3 Zrotation Yrotation Xrotation
						End Site
						{
							OFFSET 0.000000 0.000000 0.000000
						}
					}
				}
				JOINT RightLegEnd
				{
					OFFSET 0.000000 0.000000 0.000000
					CHANNELS 3 Zrotation Yrotation Xrotation
					End Site
					{
						OFFSET 0.000000 0.000000 0.000000
					}
				}
			}
			JOINT RightUpLegEnd
			{
				OFFSET 0.000000 0.000000 0.000000
				CHANNELS 3 Zrotation Yrotation Xrotation
				End Site
				{
					OFFSET 0.000000 0.000000 0.000000
				}
			}
		}
	}
	JOINT LeftUpLeg
	{
		OFFSET 11.315661 -0.000000 0.000000
		CHANNELS 3 Zrotation Yrotation Xrotation
		JOINT LeftLeg
		{
			OFFSET -0.000000 -38.200325 -0.000000
			CHANNELS 3 Zrotation Yrotation Xrotation
			JOINT LeftFoot
			{
				OFFSET 0.000000 -39.900856 -0.000000
				CHANNELS 3 Zrotation Yrotation Xrotation
				JOINT LeftToeBase
				{
					OFFSET -0.000000 -0.000000 15.261641
					CHANNELS 3 Zrotation Yrotation Xrotation
					JOINT LeftToeBaseEnd
					{
						OFFSET 0.000000 -0.000000 7.539996
						CHANNELS 3 Zrotation Yrotation Xrotation
						End Site
						{
							OFFSET 0.000000 0.000000 0.000000
						}
					}
				}
				JOINT LeftLegEnd
				{
					OFFSET 0.000000 0.000000 0.000000
					CHANNELS 3 Zrotation Yrotation Xrotation
					End Site
					{
						OFFSET 0.000000 0.000000 0.000000
					}
				}
			}
			JOINT LeftUpLegEnd
			{
				OFFSET 0.000000 0.000000 0.000000
				CHANNELS 3 Zrotation Yrotation Xrotation
				End Site
				{
					OFFSET 0.000000 0.000000 0.000000
				}
			}
		}
	}
}
MOTION
Frames: 4
Frame Time: 0.016667
0.183305 88.801590 2.992855 -0.164213 -0.735439 -10.184678 1.065702 0.078302 7.006026 -0.660818 0.321678 2.850581 0.227354 -0.325603 3.891565 -1.092778 0.410703 4.557559 1.901078 0.190107 5.689834 0.232688 0.792156 -2.772539 -0.293425 -0.644170 -20.215424 0.000000 0.000000 0.000000 92.799171 -0.160620 9.854565 68.048561 -24.655384 3.419103 0.286361 17.096563 24.458792 3.033622 12.054745 -7.386360 18.242165 30.639902 63.633537 -6.689619 -9.152486 -15.783675 -4.902344 -5.997292 -10.839988 0.000000 0.000000 0.000000 1.097440 -9.306838 5.253047 5.532258 0.535730 0.490175 5.271680 0.097412 0.507341 0.000000 0.000000 0.000000 0.994965 -3.668192 2.469472 4.135883 0.520702 0.169739 4.581688 0.021204 0.152615 0.000000 0.000000 0.000000 1.886208 4.239043 0.066358 4.047879 -1.008345 -0.344026 4.057896 -0.033341 -0.218634 0.000000 0.000000 0.000000 0.975759 12.679538 -3.191565 3.570415 -1.988991 -1.083988 3.548938 -0.007782 -0.889434 0.000000 0.000000 0.000000 0.000000 0.000000 0.000000 0.000000 0.000000 0.000000 -90.065926 -0.022881 5.273315 -71.817062 15.569489 -5.630824 0.110033 -11.463892 53.061924 11.860045 -5.405114 -12.353847 -15.414142 -31.654373 66.553207 3.282994 3.462836 -6.785345 2.246657 2.417287 -4.781540 0.000000 0.000000 0.000000 16.007925 -11.887386 15.476211 -0.847322 0.560479 -0.318929 -0.712178 0.099681 -0.369515 0.000000 0.000000 0.000000 15.711195 -6.426774 9.553580 -0.643678 0.521387 -0.158514 -0.757116 0.032054 -0.116003 0.000000 0.000000 0.000000 13.057623 2.126115 2.819218 -1.603939 -1.039970 0.321542 -1.739938 -0.042562 0.250694 0.000000 0.000000 0.000000 8.771799 11.860731 -4.501213 -2.940998 -2.036356 1.196967 -2.622718 0.010176 1.100225 0.000000 0.000000 0.000000 0.000000 0.000000 0.000000 0.000000 0.000000 0.000000 -0.362175 -9.285772 14.150016 -0.067524 -0.669121 5.154735 -3.212311 -8.068769 17.558189 -0.775371 0.760026 -18.695965 0.000000 0.000000 0.000000 0.000000 0.000000 0.000000 0.000000 0.000000 0.000000 -1.096738 -5.935238 9.051863 0.064466 0.300257 9.950027 3.683414 -0.936001 17.149948 0.350902 -0.462792 -20.613462 0.000000 0.000000 0.000000 0.000000 0.000000 0.000000 0.000000 0.000000 0.000000 
0.172822 88.798996 2.986161 -0.148796 -0.716353 -10.242062 1.072992 0.080227 7.007207 -0.670882 0.328749 2.872767 0.220898 -0.266632 3.937089 -1.118186 0.428274 4.607459 1.972412 0.130249 5.799647 0.244432 0.751097 -2.721024 -0.265149 -0.643036 -20.253134 0.000000 0.000000 0.000000 92.793480 -0.144050 9.876011 68.142365 -24.578232 3.345327 0.289097 17.069855 24.675636 2.528725 11.710812 -7.454369 18.049246 30.700480 63.817856 -6.485369 -8.782777 -15.216981 -4.739079 -5.753320 -10.440003 0.000000 0.000000 0.000000 -0.498767 -9.019807 5.872550 4.818719 0.543508 0.449738 4.550716 0.104650 0.469469 0.000000 0.000000 0.000000 -0.476758 -3.404435 2.866106 3.456104 0.524484 0.153049 3.895461 0.024297 0.138802 0.000000 0.000000 0.000000 0.574476 4.474405 0.178553 3.418054 -1.012900 -0.320866 3.421796 -0.037201 -0.200463 0.000000 0.000000 0.000000 -0.176026 12.883617 -3.327266 3.059573 -2.001257 -1.013649 3.035547 -0.019191 -0.824545 0.000000 0.000000 0.000000 0.000000 0.000000 0.000000 0.000000 0.000000 0.000000 -90.103249 -0.016292 5.238945 -71.683990 15.582251 -5.604393 0.120374 -11.428550 53.463531 12.422283 -4.844503 -12.220507 -15.364035 -31.674017 66.607414 3.222639 3.371246 -6.632379 2.200656 2.355345 -4.675202 0.000000 0.000000 0.000000 16.436533 -11.962877 15.727604 -0.870729 0.568675 -0.278451 -0.735822 0.107468 -0.331569 0.000000 0.000000 0.000000 16.130606 -6.497518 9.753759 -0.672199 0.525403 -0.141873 -0.788559 0.035983 -0.102162 0.000000 0.000000 0.000000 13.476525 2.057470 2.944530 -1.643519 -1.046096 0.297407 -1.782093 -0.047460 0.232528 0.000000 0.000000 0.000000 9.134900 11.802241 -4.448390 -2.989534 -2.049750 1.127161 -2.664047 -0.001360 1.038147 0.000000 0.000000 0.000000 0.000000 0.000000 0.000000 0.000000 0.000000 0.000000 -0.371161 -9.318877 14.190417 -0.068019 -0.669681 5.153475 -3.232395 -8.078428 17.556986 -0.778478 0.759321 -18.697079 0.000000 0.000000 0.000000 0.000000 0.000000 0.000000 0.000000 0.000000 0.000000 -1.094481 -5.967493 9.090614 0.064173 0.299256 9.992089 3.683100 -1.011967 17.125149 0.344910 -0.460320 -20.619492 0.000000 0.000000 0.000000 0.000000 0.000000 0.000000 0.000000 0.000000 0.000000 
0.163995 88.795296 2.975278 -0.134035 -0.693407 -10.291953 1.079208 0.081744 7.004532 -0.679825 0.334671 2.900370 0.214780 -0.215645 3.969748 -1.140267 0.442948 4.657026 2.055428 0.068502 5.913488 0.259522 0.713542 -2.667459 -0.238293 -0.642704 -20.290451 0.000000 0.000000 0.000000 92.793762 -0.128095 9.892130 68.201996 -24.517830 3.278302 0.291932 17.046785 24.931940 2.024351 11.303504 -7.501489 17.864008 30.759546 63.997017 -6.285860 -8.425261 -14.668582 -4.580265 -5.518427 -10.052893 0.000000 0.000000 0.000000 -2.057845 -8.735271 6.463282 4.143453 0.551390 0.410484 3.868775 0.112091 0.433334 0.000000 0.000000 0.000000 -1.921940 -3.144744 3.243841 2.816607 0.528241 0.137043 3.248664 0.027467 0.125541 0.000000 0.000000 0.000000 -0.728669 4.706247 0.281811 2.830681 -1.017601 -0.298578 2.826741 -0.041147 -0.183016 0.000000 0.000000 0.000000 -1.326593 13.084458 -3.463698 2.587649 -2.013647 -0.946634 2.559949 -0.030779 -0.763210 0.000000 0.000000 0.000000 0.000000 0.000000 0.000000 0.000000 0.000000 0.000000 -90.152885 -0.007833 5.204617 -71.523018 15.601048 -5.582983 0.123167 -11.399874 53.865490 12.906829 -4.330657 -12.082271 -15.328202 -31.688715 66.648079 3.179286 3.306288 -6.520862 2.167284 2.310830 -4.598154 0.000000 0.000000 0.000000 16.778740 -12.024437 15.932377 -0.895353 0.576559 -0.239600 -0.761245 0.114944 -0.295064 0.000000 0.000000 0.000000 16.459538 -6.552927 9.919735 -0.704367 0.529154 -0.125934 -0.823794 0.039625 -0.089051 0.000000 0.000000 0.000000 13.795653 2.006200 3.049438 -1.692042 -1.051796 0.274606 -1.831729 -0.052035 0.215651 0.000000 0.000000 0.000000 9.394759 11.761699 -4.402148 -3.053801 -2.061822 1.062534 -2.720092 -0.012010 0.980637 0.000000 0.000000 0.000000 0.000000 0.000000 0.000000 0.000000 0.000000 0.000000 -0.376779 -9.351087 14.224131 -0.068504 -0.669891 5.152742 -3.251285 -8.094518 17.556761 -0.780992 0.758321 -18.698610 0.000000 0.000000 0.000000 0.000000 0.000000 0.000000 0.000000 0.000000 0.000000 -1.096264 -6.006001 9.118793 0.064026 0.298407 10.032794 3.684131 -1.085866 17.100277 0.338426 -0.457255 -20.624805 0.000000 0.000000 0.000000 0.000000 0.000000 0.000000 0.000000 0.000000 0.000000 
0.156762 88.790802 2.960542 -0.119264 -0.665749 -10.333880 1.083050 0.083026 6.998039 -0.686851 0.339555 2.932145 0.207960 -0.173331 3.991320 -1.159032 0.454790 4.703873 2.144091 0.008391 6.025685 0.276868 0.680010 -2.615330 -0.213571 -0.643278 -20.324884 0.000000 0.000000 0.000000 92.799377 -0.113566 9.903875 68.231651 -24.475719 3.218542 0.295665 17.041250 25.209818 1.548931 10.873153 -7.511719 17.699884 30.812948 64.158348 -6.105663 -8.105730 -14.178075 -4.437427 -5.309396 -9.706682 0.000000 0.000000 0.000000 -3.466794 -8.475284 6.994159 3.558772 0.558653 0.376099 3.278571 0.119058 0.402192 0.000000 0.000000 0.000000 -3.235185 -2.908361 3.584851 2.267997 0.531693 0.123056 2.692412 0.030452 0.113934 0.000000 0.000000 0.000000 -1.924882 4.917700 0.375644 2.333296 -1.022100 -0.278905 2.320664 -0.044893 -0.167607 0.000000 0.000000 0.000000 -2.385275 13.268332 -3.585420 2.195195 -2.025295 -0.887837 2.163001 -0.041766 -0.709723 0.000000 0.000000 0.000000 0.000000 0.000000 0.000000 0.000000 0.000000 0.000000 -90.211792 0.001366 5.170918 -71.347404 15.628105 -5.572316 0.119119 -11.384581 54.271507 13.310137 -3.872036 -11.925657 -15.306361 -31.698574 66.675156 3.152763 3.267043 -6.450229 2.146291 2.283252 -4.550134 0.000000 0.000000 0.000000 17.025406 -12.070638 16.091955 -0.917475 0.583663 -0.204871 -0.784747 0.121689 -0.262336 0.000000 0.000000 0.000000 16.691326 -6.592402 10.052244 -0.735832 0.532418 -0.111684 -0.858904 0.042769 -0.077506 0.000000 0.000000 0.000000 14.012948 1.972432 3.134593 -1.743492 -1.056821 0.254502 -1.882769 -0.056072 0.201059 0.000000 0.000000 0.000000 9.555223 11.738985 -4.362281 -3.126619 -2.072232 1.006682 -2.784638 -0.021323 0.931139 0.000000 0.000000 0.000000 0.000000 0.000000 0.000000 0.000000 0.000000 0.000000 -0.381563 -9.381877 14.253466 -0.068986 -0.669972 5.150450 -3.268250 -8.113015 17.556559 -0.783087 0.756915 -18.699791 0.000000 0.000000 0.000000 0.000000 0.000000 0.000000 0.000000 0.000000 0.000000 -1.103109 -6.046159 9.137997 0.063935 0.297525 10.068750 3.686314 -1.151571 17.077499 0.331728 -0.453810 -20.629047 0.000000 0.000000 0.000000 0.000000 0.000000 0.000000 0.000000 0.000000 0.000000 
